<?xml version="1.0" standalone="no"?>
<!DOCTYPE svg PUBLIC "-//W3C//DTD SVG 20010904//EN"
 "http://www.w3.org/TR/2001/REC-SVG-20010904/DTD/svg10.dtd">
<svg version="1.0" xmlns="http://www.w3.org/2000/svg"
 width="185.000000pt" height="185.000000pt" viewBox="0 0 185.000000 185.000000"
 preserveAspectRatio="xMidYMid meet">
<metadata>
Created by potrace 1.11, written by Peter Selinger 2001-2013
</metadata>
<g transform="translate(0.000000,185.000000) scale(0.100000,-0.100000)"
fill="#000000" stroke="none">
<path d="M765 1814 c-272 -59 -473 -201 -614 -433 -49 -80 -93 -198 -107 -286
-3 -22 -8 -43 -10 -47 -9 -15 -4 -226 6 -278 63 -305 242 -537 513 -666 222
-104 508 -108 738 -10 142 62 298 186 374 297 17 24 33 46 36 49 4 3 24 43 46
90 35 73 55 133 80 233 13 53 11 255 -2 325 -37 189 -121 346 -261 485 -114
114 -257 191 -439 237 -69 18 -286 20 -360 4z"/>
</g>
</svg>
